# xmcd
#
# Track frame offsets:
# 150
# 15161
# 38794
# 50913
# 69151
# 86767
# 104671
# 120906
# 143038
# 159694
# 174103
# 192460
# 211415
# 229952
# 244696
# 262504
# 278751
# 298450
# 322201
#
# Disc length: 4666 seconds
#
#
# Revision: 0
# Processed by: cddbd v1.5.2PL0 Copyright (c) Steve Scherf et al.
# Submitted via: FreeRIP 2.951 
#
DISCID=12123813
DTITLE=Non Phixion and Co - Spin List vol28 cd4
DYEAR=1900
DGENRE=Hip-Hop
TTITLE0=Canarsie Arties Brigade(Necro Goretex)
TTITLE1=Them(Non Phixion)
TTITLE2=Thousands to MC(Raekwon)
TTITLE3=New America
TTITLE4=Glenwood Projects(Uncle Howie)
TTITLE5=Its Us
TTITLE6=The Big Sleep
TTITLE7=Street Veteran(Necro)
TTITLE8=Street Veteran(ill Bill)
TTITLE9=Chasing The Dragon(Necro)
TTITLE10=Swordfish
TTITLE11=American History X
TTITLE12=Reign IN Blood(Necro)
TTITLE13=Drug Dealin
TTITLE14=White Slavery(ill Bill)
TTITLE15=No Tomorrow
TTITLE16=Obscure Disorder
TTITLE17=One For The Butcher Knife
TTITLE18=Brooklyn Academy(IT)
EXTD=
EXTT0=
EXTT1=
EXTT2=
EXTT3=
EXTT4=
EXTT5=
EXTT6=
EXTT7=
EXTT8=
EXTT9=
EXTT10=
EXTT11=
EXTT12=
EXTT13=
EXTT14=
EXTT15=
EXTT16=
EXTT17=
EXTT18=
PLAYORDER=
